{
  "asset": {
    "generator": "glTF-Transform v4.5.0",
    "version": "2.0"
  },
  "accessors": [
    {
      "type": "VEC3",
      "componentType": 5126,
      "count": 548,
      "max": [
        0.07859495282173157,
        0.0171169713139534,
        0.09771692752838135
      ],
      "min": [
        -0.12140512466430664,
        0.01631665974855423,
        -0.10228316485881805
      ],
      "bufferView": 0,
      "byteOffset": 0
    },
    {
      "type": "VEC3",
      "componentType": 5126,
      "count": 548,
      "bufferView": 0,
      "byteOffset": 12
    },
    {
      "type": "VEC4",
      "componentType": 5121,
      "count": 548,
      "bufferView": 0,
      "byteOffset": 24
    },
    {
      "type": "VEC4",
      "componentType": 5126,
      "count": 548,
      "bufferView": 0,
      "byteOffset": 28
    },
    {
      "type": "SCALAR",
      "componentType": 5123,
      "count": 2880,
      "bufferView": 1,
      "byteOffset": 0
    },
    {
      "type": "SCALAR",
      "componentType": 5123,
      "count": 864,
      "bufferView": 1,
      "byteOffset": 5760
    },
    {
      "type": "SCALAR",
      "componentType": 5123,
      "count": 4032,
      "bufferView": 1,
      "byteOffset": 7488
    },
    {
      "type": "SCALAR",
      "componentType": 5123,
      "count": 1440,
      "bufferView": 1,
      "byteOffset": 15552
    },
    {
      "type": "SCALAR",
      "componentType": 5123,
      "count": 2496,
      "bufferView": 1,
      "byteOffset": 18432
    },
    {
      "type": "SCALAR",
      "componentType": 5123,
      "count": 672,
      "bufferView": 1,
      "byteOffset": 23424
    },
    {
      "type": "SCALAR",
      "componentType": 5123,
      "count": 4032,
      "bufferView": 1,
      "byteOffset": 24768
    },
    {
      "type": "SCALAR",
      "componentType": 5123,
      "count": 1440,
      "bufferView": 1,
      "byteOffset": 32832
    },
    {
      "type": "SCALAR",
      "componentType": 5123,
      "count": 18192,
      "bufferView": 1,
      "byteOffset": 35712
    },
    {
      "type": "SCALAR",
      "componentType": 5123,
      "count": 8088,
      "bufferView": 1,
      "byteOffset": 72096
    },
    {
      "type": "SCALAR",
      "componentType": 5123,
      "count": 5280,
      "bufferView": 1,
      "byteOffset": 88272
    },
    {
      "type": "SCALAR",
      "componentType": 5123,
      "count": 25608,
      "bufferView": 1,
      "byteOffset": 98832
    },
    {
      "type": "SCALAR",
      "componentType": 5123,
      "count": 16440,
      "bufferView": 1,
      "byteOffset": 150048
    },
    {
      "type": "SCALAR",
      "componentType": 5123,
      "count": 10578,
      "bufferView": 1,
      "byteOffset": 182928
    },
    {
      "type": "SCALAR",
      "componentType": 5123,
      "count": 231,
      "bufferView": 1,
      "byteOffset": 204084
    },
    {
      "type": "SCALAR",
      "componentType": 5123,
      "count": 6705,
      "bufferView": 1,
      "byteOffset": 204548
    },
    {
      "type": "SCALAR",
      "componentType": 5123,
      "count": 6705,
      "bufferView": 1,
      "byteOffset": 217960
    },
    {
      "type": "SCALAR",
      "componentType": 5123,
      "count": 6705,
      "bufferView": 1,
      "byteOffset": 231372
    },
    {
      "type": "SCALAR",
      "componentType": 5123,
      "count": 6705,
      "bufferView": 1,
      "byteOffset": 244784
    },
    {
      "type": "SCALAR",
      "componentType": 5123,
      "count": 6705,
      "bufferView": 1,
      "byteOffset": 258196
    },
    {
      "type": "SCALAR",
      "componentType": 5123,
      "count": 246,
      "bufferView": 1,
      "byteOffset": 271608
    },
    {
      "type": "SCALAR",
      "componentType": 5123,
      "count": 6984,
      "bufferView": 1,
      "byteOffset": 272100
    },
    {
      "type": "SCALAR",
      "componentType": 5123,
      "count": 6012,
      "bufferView": 1,
      "byteOffset": 286068
    },
    {
      "type": "SCALAR",
      "componentType": 5123,
      "count": 4578,
      "bufferView": 1,
      "byteOffset": 298092
    },
    {
      "type": "SCALAR",
      "componentType": 5123,
      "count": 5910,
      "bufferView": 1,
      "byteOffset": 307248
    },
    {
      "type": "SCALAR",
      "componentType": 5123,
      "count": 6414,
      "bufferView": 1,
      "byteOffset": 319068
    },
    {
      "type": "SCALAR",
      "componentType": 5123,
      "count": 1284,
      "bufferView": 1,
      "byteOffset": 331896
    },
    {
      "type": "SCALAR",
      "componentType": 5123,
      "count": 115104,
      "bufferView": 1,
      "byteOffset": 334464
    },
    {
      "type": "SCALAR",
      "componentType": 5123,
      "count": 6,
      "bufferView": 1,
      "byteOffset": 564672
    },
    {
      "type": "SCALAR",
      "componentType": 5123,
      "count": 960,
      "bufferView": 1,
      "byteOffset": 564684
    },
    {
      "type": "VEC3",
      "componentType": 5126,
      "count": 171,
      "max": [
        0.07845975458621979,
        0.016766835004091263,
        0.0975867360830307
      ],
      "min": [
        -0.12091413885354996,
        0.016666796058416367,
        -0.10211536288261414
      ],
      "bufferView": 2,
      "byteOffset": 0
    },
    {
      "type": "VEC3",
      "componentType": 5126,
      "count": 171,
      "bufferView": 2,
      "byteOffset": 12
    },
    {
      "type": "VEC2",
      "componentType": 5126,
      "count": 171,
      "bufferView": 2,
      "byteOffset": 24
    },
    {
      "type": "VEC4",
      "componentType": 5121,
      "count": 171,
      "bufferView": 2,
      "byteOffset": 32
    },
    {
      "type": "VEC4",
      "componentType": 5126,
      "count": 171,
      "bufferView": 2,
      "byteOffset": 36
    },
    {
      "type": "MAT4",
      "componentType": 5126,
      "count": 9,
      "bufferView": 3,
      "byteOffset": 0
    },
    {
      "type": "VEC3",
      "componentType": 5126,
      "count": 756,
      "max": [
        0.07859495282173157,
        0.015516349114477634,
        0.09771692752838135
      ],
      "min": [
        -0.12140512466430664,
        0.01471603661775589,
        -0.10228316485881805
      ],
      "bufferView": 4,
      "byteOffset": 0
    },
    {
      "type": "VEC3",
      "componentType": 5126,
      "count": 756,
      "bufferView": 4,
      "byteOffset": 12
    },
    {
      "type": "VEC4",
      "componentType": 5121,
      "count": 756,
      "bufferView": 4,
      "byteOffset": 24
    },
    {
      "type": "VEC4",
      "componentType": 5126,
      "count": 756,
      "bufferView": 4,
      "byteOffset": 28
    },
    {
      "type": "VEC3",
      "componentType": 5126,
      "count": 273,
      "max": [
        0.07845975458621979,
        0.015166211873292923,
        0.0975867360830307
      ],
      "min": [
        -0.12091413885354996,
        0.015066172927618027,
        -0.10211536288261414
      ],
      "bufferView": 5,
      "byteOffset": 0
    },
    {
      "type": "VEC3",
      "componentType": 5126,
      "count": 273,
      "bufferView": 5,
      "byteOffset": 12
    },
    {
      "type": "VEC2",
      "componentType": 5126,
      "count": 273,
      "bufferView": 5,
      "byteOffset": 24
    },
    {
      "type": "VEC4",
      "componentType": 5121,
      "count": 273,
      "bufferView": 5,
      "byteOffset": 32
    },
    {
      "type": "VEC4",
      "componentType": 5126,
      "count": 273,
      "bufferView": 5,
      "byteOffset": 36
    },
    {
      "type": "VEC3",
      "componentType": 5126,
      "count": 476,
      "max": [
        0.07859495282173157,
        0.017917277291417122,
        0.09771692752838135
      ],
      "min": [
        -0.12140512466430664,
        0.01711696945130825,
        -0.10228316485881805
      ],
      "bufferView": 6,
      "byteOffset": 0
    },
    {
      "type": "VEC3",
      "componentType": 5126,
      "count": 476,
      "bufferView": 6,
      "byteOffset": 12
    },
    {
      "type": "VEC4",
      "componentType": 5121,
      "count": 476,
      "bufferView": 6,
      "byteOffset": 24
    },
    {
      "type": "VEC4",
      "componentType": 5126,
      "count": 476,
      "bufferView": 6,
      "byteOffset": 28
    },
    {
      "type": "VEC3",
      "componentType": 5126,
      "count": 135,
      "max": [
        0.0784594714641571,
        0.017567139118909836,
        0.0975867360830307
      ],
      "min": [
        -0.12091413885354996,
        0.017467107623815536,
        -0.10211536288261414
      ],
      "bufferView": 7,
      "byteOffset": 0
    },
    {
      "type": "VEC3",
      "componentType": 5126,
      "count": 135,
      "bufferView": 7,
      "byteOffset": 12
    },
    {
      "type": "VEC2",
      "componentType": 5126,
      "count": 135,
      "bufferView": 7,
      "byteOffset": 24
    },
    {
      "type": "VEC4",
      "componentType": 5121,
      "count": 135,
      "bufferView": 7,
      "byteOffset": 32
    },
    {
      "type": "VEC4",
      "componentType": 5126,
      "count": 135,
      "bufferView": 7,
      "byteOffset": 36
    },
    {
      "type": "VEC3",
      "componentType": 5126,
      "count": 757,
      "max": [
        0.07859495282173157,
        0.01631665974855423,
        0.09771692752838135
      ],
      "min": [
        -0.12140512466430664,
        0.01551634818315506,
        -0.10228316485881805
      ],
      "bufferView": 8,
      "byteOffset": 0
    },
    {
      "type": "VEC3",
      "componentType": 5126,
      "count": 757,
      "bufferView": 8,
      "byteOffset": 12
    },
    {
      "type": "VEC4",
      "componentType": 5121,
      "count": 757,
      "bufferView": 8,
      "byteOffset": 24
    },
    {
      "type": "VEC4",
      "componentType": 5126,
      "count": 757,
      "bufferView": 8,
      "byteOffset": 28
    },
    {
      "type": "VEC3",
      "componentType": 5126,
      "count": 273,
      "max": [
        0.07845975458621979,
        0.015966523438692093,
        0.0975867360830307
      ],
      "min": [
        -0.12091413885354996,
        0.015866484493017197,
        -0.10211536288261414
      ],
      "bufferView": 9,
      "byteOffset": 0
    },
    {
      "type": "VEC3",
      "componentType": 5126,
      "count": 273,
      "bufferView": 9,
      "byteOffset": 12
    },
    {
      "type": "VEC2",
      "componentType": 5126,
      "count": 273,
      "bufferView": 9,
      "byteOffset": 24
    },
    {
      "type": "VEC4",
      "componentType": 5121,
      "count": 273,
      "bufferView": 9,
      "byteOffset": 32
    },
    {
      "type": "VEC4",
      "componentType": 5126,
      "count": 273,
      "bufferView": 9,
      "byteOffset": 36
    },
    {
      "type": "VEC3",
      "componentType": 5126,
      "count": 3653,
      "max": [
        0.07859498262405396,
        0.01471603661775589,
        0.09771692752838135
      ],
      "min": [
        -0.12140511721372604,
        0.012315886095166206,
        -0.10228316485881805
      ],
      "bufferView": 10,
      "byteOffset": 0
    },
    {
      "type": "VEC3",
      "componentType": 5126,
      "count": 3653,
      "bufferView": 10,
      "byteOffset": 12
    },
    {
      "type": "VEC4",
      "componentType": 5121,
      "count": 3653,
      "bufferView": 10,
      "byteOffset": 24
    },
    {
      "type": "VEC4",
      "componentType": 5126,
      "count": 3653,
      "bufferView": 10,
      "byteOffset": 28
    },
    {
      "type": "VEC3",
      "componentType": 5126,
      "count": 1478,
      "max": [
        0.07845975458621979,
        0.014365900307893753,
        0.0975867360830307
      ],
      "min": [
        -0.12091413885354996,
        0.01388529222458601,
        -0.10211537778377533
      ],
      "bufferView": 11,
      "byteOffset": 0
    },
    {
      "type": "VEC3",
      "componentType": 5126,
      "count": 1478,
      "bufferView": 11,
      "byteOffset": 12
    },
    {
      "type": "VEC2",
      "componentType": 5126,
      "count": 1478,
      "bufferView": 11,
      "byteOffset": 24
    },
    {
      "type": "VEC4",
      "componentType": 5121,
      "count": 1478,
      "bufferView": 11,
      "byteOffset": 32
    },
    {
      "type": "VEC4",
      "componentType": 5126,
      "count": 1478,
      "bufferView": 11,
      "byteOffset": 36
    },
    {
      "type": "VEC3",
      "componentType": 5126,
      "count": 984,
      "max": [
        0.0784594863653183,
        0.01846005767583847,
        0.0975867360830307
      ],
      "min": [
        -0.12091414630413055,
        0.01826741173863411,
        -0.10211537778377533
      ],
      "bufferView": 12,
      "byteOffset": 0
    },
    {
      "type": "VEC3",
      "componentType": 5126,
      "count": 984,
      "bufferView": 12,
      "byteOffset": 12
    },
    {
      "type": "VEC2",
      "componentType": 5126,
      "count": 984,
      "bufferView": 12,
      "byteOffset": 24
    },
    {
      "type": "VEC4",
      "componentType": 5121,
      "count": 984,
      "bufferView": 12,
      "byteOffset": 32
    },
    {
      "type": "VEC4",
      "componentType": 5126,
      "count": 984,
      "bufferView": 12,
      "byteOffset": 36
    },
    {
      "type": "VEC3",
      "componentType": 5126,
      "count": 4512,
      "max": [
        0.14859288930892944,
        0.02073410153388977,
        0.09771692752838135
      ],
      "min": [
        -0.13120855391025543,
        0.0012244107201695442,
        -0.10228317975997925
      ],
      "bufferView": 13,
      "byteOffset": 0
    },
    {
      "type": "VEC3",
      "componentType": 5126,
      "count": 4512,
      "bufferView": 13,
      "byteOffset": 12
    },
    {
      "type": "VEC4",
      "componentType": 5121,
      "count": 4512,
      "bufferView": 13,
      "byteOffset": 24
    },
    {
      "type": "VEC4",
      "componentType": 5126,
      "count": 4512,
      "bufferView": 13,
      "byteOffset": 28
    },
    {
      "type": "VEC3",
      "componentType": 5126,
      "count": 2866,
      "max": [
        0.14825713634490967,
        0.0208173468708992,
        0.09747827053070068
      ],
      "min": [
        -0.13129164278507233,
        0.001141623593866825,
        -0.10197560489177704
      ],
      "bufferView": 14,
      "byteOffset": 0
    },
    {
      "type": "VEC3",
      "componentType": 5126,
      "count": 2866,
      "bufferView": 14,
      "byteOffset": 12
    },
    {
      "type": "VEC2",
      "componentType": 5126,
      "count": 2866,
      "bufferView": 14,
      "byteOffset": 24
    },
    {
      "type": "VEC4",
      "componentType": 5121,
      "count": 2866,
      "bufferView": 14,
      "byteOffset": 32
    },
    {
      "type": "VEC4",
      "componentType": 5126,
      "count": 2866,
      "bufferView": 14,
      "byteOffset": 36
    },
    {
      "type": "VEC3",
      "componentType": 5126,
      "count": 1801,
      "max": [
        0.0072403037920594215,
        0.007250186987221241,
        0.020476313307881355
      ],
      "min": [
        -0.007240308448672295,
        -0.007250187918543816,
        -0.030025789514183998
      ],
      "bufferView": 15,
      "byteOffset": 0
    },
    {
      "type": "VEC3",
      "componentType": 5126,
      "count": 1801,
      "bufferView": 15,
      "byteOffset": 12
    },
    {
      "type": "VEC3",
      "componentType": 5126,
      "count": 1801,
      "max": [
        0.007247444242238998,
        0.0072470130398869514,
        0.030025793239474297
      ],
      "min": [
        -0.0072474428452551365,
        -0.007247029338032007,
        -0.02047630213201046
      ],
      "bufferView": 16,
      "byteOffset": 0
    },
    {
      "type": "VEC3",
      "componentType": 5126,
      "count": 1801,
      "bufferView": 16,
      "byteOffset": 12
    },
    {
      "type": "VEC3",
      "componentType": 5126,
      "count": 1801,
      "max": [
        0.007245925720781088,
        0.007248310372233391,
        0.020476313307881355
      ],
      "min": [
        -0.007245924323797226,
        -0.007248310837894678,
        -0.030025789514183998
      ],
      "bufferView": 17,
      "byteOffset": 0
    },
    {
      "type": "VEC3",
      "componentType": 5126,
      "count": 1801,
      "bufferView": 17,
      "byteOffset": 12
    },
    {
      "type": "VEC3",
      "componentType": 5126,
      "count": 78,
      "max": [
        0.007248796056956053,
        0.0014587914338335395,
        0.0072520216926932335
      ],
      "min": [
        -0.007248791866004467,
        0.0014587907353416085,
        -0.0072425371035933495
      ],
      "bufferView": 18,
      "byteOffset": 0
    },
    {
      "type": "VEC3",
      "componentType": 5126,
      "count": 78,
      "bufferView": 18,
      "byteOffset": 12
    },
    {
      "type": "VEC2",
      "componentType": 5126,
      "count": 78,
      "bufferView": 18,
      "byteOffset": 24
    },
    {
      "type": "VEC3",
      "componentType": 5126,
      "count": 1619,
      "max": [
        0.009747175499796867,
        0.0014587914338335395,
        0.009752125479280949
      ],
      "min": [
        -0.009747171774506569,
        -0.005541499238461256,
        -0.009748668409883976
      ],
      "bufferView": 19,
      "byteOffset": 0
    },
    {
      "type": "VEC3",
      "componentType": 5126,
      "count": 1619,
      "bufferView": 19,
      "byteOffset": 12
    },
    {
      "type": "VEC3",
      "componentType": 5126,
      "count": 78,
      "max": [
        0.007245939690619707,
        0.0014587914338335395,
        0.007249184884130955
      ],
      "min": [
        -0.007250427268445492,
        0.0014587907353416085,
        -0.007247998844832182
      ],
      "bufferView": 20,
      "byteOffset": 0
    },
    {
      "type": "VEC3",
      "componentType": 5126,
      "count": 78,
      "bufferView": 20,
      "byteOffset": 12
    },
    {
      "type": "VEC2",
      "componentType": 5126,
      "count": 78,
      "bufferView": 20,
      "byteOffset": 24
    },
    {
      "type": "VEC3",
      "componentType": 5126,
      "count": 1621,
      "max": [
        0.009749507531523705,
        0.0014587914338335395,
        0.009751012548804283
      ],
      "min": [
        -0.009742665104568005,
        -0.005541499238461256,
        -0.009742182679474354
      ],
      "bufferView": 21,
      "byteOffset": 0
    },
    {
      "type": "VEC3",
      "componentType": 5126,
      "count": 1621,
      "bufferView": 21,
      "byteOffset": 12
    },
    {
      "type": "VEC3",
      "componentType": 5126,
      "count": 78,
      "max": [
        0.007243697065860033,
        0.0014587914338335395,
        0.007247153203934431
      ],
      "min": [
        -0.007251014467328787,
        0.0014587907353416085,
        -0.007250442169606686
      ],
      "bufferView": 22,
      "byteOffset": 0
    },
    {
      "type": "VEC3",
      "componentType": 5126,
      "count": 78,
      "bufferView": 22,
      "byteOffset": 12
    },
    {
      "type": "VEC2",
      "componentType": 5126,
      "count": 78,
      "bufferView": 22,
      "byteOffset": 24
    },
    {
      "type": "VEC3",
      "componentType": 5126,
      "count": 1621,
      "max": [
        0.009741244837641716,
        0.0014587914338335395,
        0.009742648340761662
      ],
      "min": [
        -0.009750645607709885,
        -0.005541499238461256,
        -0.009750744327902794
      ],
      "bufferView": 23,
      "byteOffset": 0
    },
    {
      "type": "VEC3",
      "componentType": 5126,
      "count": 1621,
      "bufferView": 23,
      "byteOffset": 12
    },
    {
      "type": "VEC3",
      "componentType": 5126,
      "count": 78,
      "max": [
        0.007249050308018923,
        0.0014587914338335395,
        0.007248947396874428
      ],
      "min": [
        -0.007248301059007645,
        0.0014587907353416085,
        -0.0072470614686608315
      ],
      "bufferView": 24,
      "byteOffset": 0
    },
    {
      "type": "VEC3",
      "componentType": 5126,
      "count": 78,
      "bufferView": 24,
      "byteOffset": 12
    },
    {
      "type": "VEC2",
      "componentType": 5126,
      "count": 78,
      "bufferView": 24,
      "byteOffset": 24
    },
    {
      "type": "VEC3",
      "componentType": 5126,
      "count": 1621,
      "max": [
        0.009745942428708076,
        0.0014587914338335395,
        0.009748836979269981
      ],
      "min": [
        -0.009747710078954697,
        -0.005541499238461256,
        -0.00974255707114935
      ],
      "bufferView": 25,
      "byteOffset": 0
    },
    {
      "type": "VEC3",
      "componentType": 5126,
      "count": 1621,
      "bufferView": 25,
      "byteOffset": 12
    },
    {
      "type": "VEC3",
      "componentType": 5126,
      "count": 78,
      "max": [
        0.007248794659972191,
        0.0014587914338335395,
        0.007252019830048084
      ],
      "min": [
        -0.007248793262988329,
        0.0014587907353416085,
        -0.007242538966238499
      ],
      "bufferView": 26,
      "byteOffset": 0
    },
    {
      "type": "VEC3",
      "componentType": 5126,
      "count": 78,
      "bufferView": 26,
      "byteOffset": 12
    },
    {
      "type": "VEC2",
      "componentType": 5126,
      "count": 78,
      "bufferView": 26,
      "byteOffset": 24
    },
    {
      "type": "VEC3",
      "componentType": 5126,
      "count": 1621,
      "max": [
        0.009747173637151718,
        0.0014587914338335395,
        0.0097521236166358
      ],
      "min": [
        -0.009747172705829144,
        -0.005541499238461256,
        -0.009748670272529125
      ],
      "bufferView": 27,
      "byteOffset": 0
    },
    {
      "type": "VEC3",
      "componentType": 5126,
      "count": 1621,
      "bufferView": 27,
      "byteOffset": 12
    },
    {
      "type": "VEC3",
      "componentType": 5126,
      "count": 83,
      "max": [
        0.009253506548702717,
        0.001400367938913405,
        0.009252771735191345
      ],
      "min": [
        -0.009235945530235767,
        0.001400367240421474,
        -0.009247888810932636
      ],
      "bufferView": 28,
      "byteOffset": 0
    },
    {
      "type": "VEC3",
      "componentType": 5126,
      "count": 83,
      "bufferView": 28,
      "byteOffset": 12
    },
    {
      "type": "VEC2",
      "componentType": 5126,
      "count": 83,
      "bufferView": 28,
      "byteOffset": 24
    },
    {
      "type": "VEC3",
      "componentType": 5126,
      "count": 1673,
      "max": [
        0.011001511476933956,
        0.001400367938913405,
        0.010994192212820053
      ],
      "min": [
        -0.010990596376359463,
        -0.005599922966212034,
        -0.010997259058058262
      ],
      "bufferView": 29,
      "byteOffset": 0
    },
    {
      "type": "VEC3",
      "componentType": 5126,
      "count": 1673,
      "bufferView": 29,
      "byteOffset": 12
    },
    {
      "type": "VEC3",
      "componentType": 5126,
      "count": 1950,
      "max": [
        0.02408263087272644,
        0.0008791087893769145,
        0.04150659590959549
      ],
      "min": [
        -0.023859361186623573,
        -0.0016209979075938463,
        -0.026770897209644318
      ],
      "bufferView": 30,
      "byteOffset": 0
    },
    {
      "type": "VEC3",
      "componentType": 5126,
      "count": 1950,
      "bufferView": 30,
      "byteOffset": 12
    },
    {
      "type": "VEC3",
      "componentType": 5126,
      "count": 1583,
      "max": [
        0.03514893725514412,
        0.010547826066613197,
        0.12459209561347961
      ],
      "min": [
        -0.034748971462249756,
        -0.003592768916860223,
        -0.07121101766824722
      ],
      "bufferView": 31,
      "byteOffset": 0
    },
    {
      "type": "VEC3",
      "componentType": 5126,
      "count": 1583,
      "bufferView": 31,
      "byteOffset": 12
    },
    {
      "type": "VEC3",
      "componentType": 5126,
      "count": 1955,
      "max": [
        0.020165832713246346,
        0.008542033843696117,
        0.025534534826874733
      ],
      "min": [
        -0.03278636187314987,
        -0.0030334608163684607,
        -0.04894356429576874
      ],
      "bufferView": 32,
      "byteOffset": 0
    },
    {
      "type": "VEC3",
      "componentType": 5126,
      "count": 1955,
      "bufferView": 32,
      "byteOffset": 12
    },
    {
      "type": "VEC3",
      "componentType": 5126,
      "count": 2111,
      "max": [
        0.02469203993678093,
        0.002821276430040598,
        0.05187646299600601
      ],
      "min": [
        -0.025250041857361794,
        -0.0026889354921877384,
        -0.048866745084524155
      ],
      "bufferView": 33,
      "byteOffset": 0
    },
    {
      "type": "VEC3",
      "componentType": 5126,
      "count": 2111,
      "bufferView": 33,
      "byteOffset": 12
    },
    {
      "type": "VEC3",
      "componentType": 5126,
      "count": 430,
      "max": [
        0.010000412352383137,
        0.00378255732357502,
        0.009997101500630379
      ],
      "min": [
        -0.009987156838178635,
        -0.0022176923230290413,
        -0.009997106157243252
      ],
      "bufferView": 34,
      "byteOffset": 0
    },
    {
      "type": "VEC3",
      "componentType": 5126,
      "count": 430,
      "bufferView": 34,
      "byteOffset": 12
    },
    {
      "type": "VEC3",
      "componentType": 5126,
      "count": 41642,
      "max": [
        0.03453392535448074,
        0.005472326185554266,
        0.1171165183186531
      ],
      "min": [
        -0.03541000187397003,
        -0.013028446584939957,
        -0.0828917920589447
      ],
      "bufferView": 35,
      "byteOffset": 0
    },
    {
      "type": "VEC3",
      "componentType": 5126,
      "count": 41642,
      "bufferView": 35,
      "byteOffset": 12
    },
    {
      "type": "VEC3",
      "componentType": 5126,
      "count": 4,
      "max": [
        0.025847207754850388,
        0,
        0.011957980692386627
      ],
      "min": [
        -0.025847207754850388,
        0,
        -0.01195797510445118
      ],
      "bufferView": 36,
      "byteOffset": 0
    },
    {
      "type": "VEC3",
      "componentType": 5126,
      "count": 4,
      "bufferView": 36,
      "byteOffset": 12
    },
    {
      "type": "VEC2",
      "componentType": 5126,
      "count": 4,
      "bufferView": 36,
      "byteOffset": 24
    },
    {
      "type": "VEC3",
      "componentType": 5126,
      "count": 169,
      "max": [
        0.10000003129243851,
        0.004000000189989805,
        0.10000003129243851
      ],
      "min": [
        -0.10000003129243851,
        -0.004000000189989805,
        -0.10000003129243851
      ],
      "bufferView": 37,
      "byteOffset": 0
    },
    {
      "type": "VEC3",
      "componentType": 5126,
      "count": 169,
      "bufferView": 37,
      "byteOffset": 12
    },
    {
      "type": "SCALAR",
      "componentType": 5126,
      "count": 350,
      "max": [
        11.666666984558105
      ],
      "min": [
        0.03333333507180214
      ],
      "bufferView": 38,
      "byteOffset": 0
    },
    {
      "type": "VEC3",
      "componentType": 5126,
      "count": 350,
      "bufferView": 38,
      "byteOffset": 1400
    },
    {
      "type": "VEC4",
      "componentType": 5126,
      "count": 350,
      "bufferView": 38,
      "byteOffset": 5600
    },
    {
      "type": "SCALAR",
      "componentType": 5126,
      "count": 2,
      "max": [
        11.666666984558105
      ],
      "min": [
        0.03333333507180214
      ],
      "bufferView": 38,
      "byteOffset": 11200
    },
    {
      "type": "VEC3",
      "componentType": 5126,
      "count": 2,
      "bufferView": 38,
      "byteOffset": 11208
    },
    {
      "type": "VEC3",
      "componentType": 5126,
      "count": 350,
      "bufferView": 38,
      "byteOffset": 11232
    },
    {
      "type": "VEC4",
      "componentType": 5126,
      "count": 350,
      "bufferView": 38,
      "byteOffset": 15432
    },
    {
      "type": "VEC3",
      "componentType": 5126,
      "count": 2,
      "bufferView": 38,
      "byteOffset": 21032
    },
    {
      "type": "VEC3",
      "componentType": 5126,
      "count": 350,
      "bufferView": 38,
      "byteOffset": 21056
    },
    {
      "type": "VEC4",
      "componentType": 5126,
      "count": 350,
      "bufferView": 38,
      "byteOffset": 25256
    },
    {
      "type": "VEC3",
      "componentType": 5126,
      "count": 350,
      "bufferView": 38,
      "byteOffset": 30856
    },
    {
      "type": "VEC4",
      "componentType": 5126,
      "count": 350,
      "bufferView": 38,
      "byteOffset": 35056
    },
    {
      "type": "VEC3",
      "componentType": 5126,
      "count": 350,
      "bufferView": 38,
      "byteOffset": 40656
    },
    {
      "type": "VEC4",
      "componentType": 5126,
      "count": 350,
      "bufferView": 38,
      "byteOffset": 44856
    },
    {
      "type": "VEC3",
      "componentType": 5126,
      "count": 2,
      "bufferView": 38,
      "byteOffset": 50456
    },
    {
      "type": "VEC4",
      "componentType": 5126,
      "count": 350,
      "bufferView": 38,
      "byteOffset": 50480
    },
    {
      "type": "VEC3",
      "componentType": 5126,
      "count": 2,
      "bufferView": 38,
      "byteOffset": 56080
    },
    {
      "type": "VEC4",
      "componentType": 5126,
      "count": 350,
      "bufferView": 38,
      "byteOffset": 56104
    },
    {
      "type": "VEC3",
      "componentType": 5126,
      "count": 2,
      "bufferView": 38,
      "byteOffset": 61704
    },
    {
      "type": "VEC4",
      "componentType": 5126,
      "count": 2,
      "bufferView": 38,
      "byteOffset": 61728
    },
    {
      "type": "VEC3",
      "componentType": 5126,
      "count": 350,
      "bufferView": 38,
      "byteOffset": 61760
    },
    {
      "type": "VEC4",
      "componentType": 5126,
      "count": 350,
      "bufferView": 38,
      "byteOffset": 65960
    },
    {
      "type": "VEC4",
      "componentType": 5126,
      "count": 350,
      "bufferView": 38,
      "byteOffset": 71560
    }
  ],
  "bufferViews": [
    {
      "buffer": 0,
      "byteOffset": 0,
      "byteLength": 24112,
      "byteStride": 44,
      "target": 34962
    },
    {
      "buffer": 0,
      "byteOffset": 24112,
      "byteLength": 566604,
      "target": 34963
    },
    {
      "buffer": 0,
      "byteOffset": 590716,
      "byteLength": 8892,
      "byteStride": 52,
      "target": 34962
    },
    {
      "buffer": 0,
      "byteOffset": 599608,
      "byteLength": 576
    },
    {
      "buffer": 0,
      "byteOffset": 600184,
      "byteLength": 33264,
      "byteStride": 44,
      "target": 34962
    },
    {
      "buffer": 0,
      "byteOffset": 633448,
      "byteLength": 14196,
      "byteStride": 52,
      "target": 34962
    },
    {
      "buffer": 0,
      "byteOffset": 647644,
      "byteLength": 20944,
      "byteStride": 44,
      "target": 34962
    },
    {
      "buffer": 0,
      "byteOffset": 668588,
      "byteLength": 7020,
      "byteStride": 52,
      "target": 34962
    },
    {
      "buffer": 0,
      "byteOffset": 675608,
      "byteLength": 33308,
      "byteStride": 44,
      "target": 34962
    },
    {
      "buffer": 0,
      "byteOffset": 708916,
      "byteLength": 14196,
      "byteStride": 52,
      "target": 34962
    },
    {
      "buffer": 0,
      "byteOffset": 723112,
      "byteLength": 160732,
      "byteStride": 44,
      "target": 34962
    },
    {
      "buffer": 0,
      "byteOffset": 883844,
      "byteLength": 76856,
      "byteStride": 52,
      "target": 34962
    },
    {
      "buffer": 0,
      "byteOffset": 960700,
      "byteLength": 51168,
      "byteStride": 52,
      "target": 34962
    },
    {
      "buffer": 0,
      "byteOffset": 1011868,
      "byteLength": 198528,
      "byteStride": 44,
      "target": 34962
    },
    {
      "buffer": 0,
      "byteOffset": 1210396,
      "byteLength": 149032,
      "byteStride": 52,
      "target": 34962
    },
    {
      "buffer": 0,
      "byteOffset": 1359428,
      "byteLength": 43224,
      "byteStride": 24,
      "target": 34962
    },
    {
      "buffer": 0,
      "byteOffset": 1402652,
      "byteLength": 43224,
      "byteStride": 24,
      "target": 34962
    },
    {
      "buffer": 0,
      "byteOffset": 1445876,
      "byteLength": 43224,
      "byteStride": 24,
      "target": 34962
    },
    {
      "buffer": 0,
      "byteOffset": 1489100,
      "byteLength": 2496,
      "byteStride": 32,
      "target": 34962
    },
    {
      "buffer": 0,
      "byteOffset": 1491596,
      "byteLength": 38856,
      "byteStride": 24,
      "target": 34962
    },
    {
      "buffer": 0,
      "byteOffset": 1530452,
      "byteLength": 2496,
      "byteStride": 32,
      "target": 34962
    },
    {
      "buffer": 0,
      "byteOffset": 1532948,
      "byteLength": 38904,
      "byteStride": 24,
      "target": 34962
    },
    {
      "buffer": 0,
      "byteOffset": 1571852,
      "byteLength": 2496,
      "byteStride": 32,
      "target": 34962
    },
    {
      "buffer": 0,
      "byteOffset": 1574348,
      "byteLength": 38904,
      "byteStride": 24,
      "target": 34962
    },
    {
      "buffer": 0,
      "byteOffset": 1613252,
      "byteLength": 2496,
      "byteStride": 32,
      "target": 34962
    },
    {
      "buffer": 0,
      "byteOffset": 1615748,
      "byteLength": 38904,
      "byteStride": 24,
      "target": 34962
    },
    {
      "buffer": 0,
      "byteOffset": 1654652,
      "byteLength": 2496,
      "byteStride": 32,
      "target": 34962
    },
    {
      "buffer": 0,
      "byteOffset": 1657148,
      "byteLength": 38904,
      "byteStride": 24,
      "target": 34962
    },
    {
      "buffer": 0,
      "byteOffset": 1696052,
      "byteLength": 2656,
      "byteStride": 32,
      "target": 34962
    },
    {
      "buffer": 0,
      "byteOffset": 1698708,
      "byteLength": 40152,
      "byteStride": 24,
      "target": 34962
    },
    {
      "buffer": 0,
      "byteOffset": 1738860,
      "byteLength": 46800,
      "byteStride": 24,
      "target": 34962
    },
    {
      "buffer": 0,
      "byteOffset": 1785660,
      "byteLength": 37992,
      "byteStride": 24,
      "target": 34962
    },
    {
      "buffer": 0,
      "byteOffset": 1823652,
      "byteLength": 46920,
      "byteStride": 24,
      "target": 34962
    },
    {
      "buffer": 0,
      "byteOffset": 1870572,
      "byteLength": 50664,
      "byteStride": 24,
      "target": 34962
    },
    {
      "buffer": 0,
      "byteOffset": 1921236,
      "byteLength": 10320,
      "byteStride": 24,
      "target": 34962
    },
    {
      "buffer": 0,
      "byteOffset": 1931556,
      "byteLength": 999408,
      "byteStride": 24,
      "target": 34962
    },
    {
      "buffer": 0,
      "byteOffset": 2930964,
      "byteLength": 128,
      "byteStride": 32,
      "target": 34962
    },
    {
      "buffer": 0,
      "byteOffset": 2931092,
      "byteLength": 4056,
      "byteStride": 24,
      "target": 34962
    },
    {
      "buffer": 0,
      "byteOffset": 2935148,
      "byteLength": 77160
    }
  ],
  "samplers": [
    {
      "magFilter": 9729,
      "minFilter": 9987,
      "wrapS": 10497,
      "wrapT": 10497
    },
    {
      "magFilter": 9729,
      "minFilter": 9987,
      "wrapS": 33071,
      "wrapT": 33071
    }
  ],
  "textures": [
    {
      "source": 2,
      "sampler": 0
    },
    {
      "source": 3,
      "sampler": 0
    },
    {
      "source": 4,
      "sampler": 0
    },
    {
      "source": 5,
      "sampler": 0
    },
    {
      "source": 6,
      "sampler": 0
    },
    {
      "source": 0,
      "sampler": 0
    },
    {
      "source": 1,
      "sampler": 1
    },
    {
      "source": 7,
      "sampler": 0
    },
    {
      "source": 8,
      "sampler": 0
    },
    {
      "source": 9,
      "sampler": 0
    },
    {
      "source": 10,
      "sampler": 0
    },
    {
      "source": 11,
      "sampler": 0
    },
    {
      "source": 12,
      "sampler": 1
    },
    {
      "source": 13,
      "sampler": 0
    }
  ],
  "images": [
    {
      "name": "page-1",
      "mimeType": "image/webp",
      "uri": "textures/page-1.webp"
    },
    {
      "name": "whatsapp-image-2026-09-03-at-1-30-11-pm",
      "mimeType": "image/webp",
      "uri": "textures/whatsapp-image-2026-09-03-at-1-30-11-pm.webp"
    },
    {
      "name": "page-3",
      "mimeType": "image/webp",
      "uri": "textures/page-3.webp"
    },
    {
      "name": "page-5",
      "mimeType": "image/webp",
      "uri": "textures/page-5.webp"
    },
    {
      "name": "page-2",
      "mimeType": "image/webp",
      "uri": "textures/page-2.webp"
    },
    {
      "name": "page-4",
      "mimeType": "image/webp",
      "uri": "textures/page-4.webp"
    },
    {
      "name": "page-6",
      "mimeType": "image/webp",
      "uri": "textures/page-6.webp"
    },
    {
      "name": "buton-whistle",
      "mimeType": "image/webp",
      "uri": "textures/buton-whistle.webp"
    },
    {
      "name": "button-crowd",
      "mimeType": "image/webp",
      "uri": "textures/button-crowd.webp"
    },
    {
      "name": "button-aaah",
      "mimeType": "image/webp",
      "uri": "textures/button-aaah.webp"
    },
    {
      "name": "buton-ole",
      "mimeType": "image/webp",
      "uri": "textures/buton-ole.webp"
    },
    {
      "name": "button-stadium",
      "mimeType": "image/webp",
      "uri": "textures/button-stadium.webp"
    },
    {
      "name": "button-rec",
      "mimeType": "image/webp",
      "uri": "textures/button-rec.webp"
    },
    {
      "name": "logo-png-02",
      "mimeType": "image/webp",
      "uri": "textures/logo-png-02.webp"
    }
  ],
  "buffers": [
    {
      "uri": "book.bin",
      "byteLength": 3012308
    }
  ],
  "materials": [
    {
      "name": "White",
      "doubleSided": true,
      "pbrMetallicRoughness": {
        "baseColorFactor": [
          0.5882384777069092,
          0.5882384777069092,
          0.5882384777069092,
          1
        ],
        "roughnessFactor": 0.6461538672447205,
        "metallicFactor": 0
      }
    },
    {
      "name": "3",
      "doubleSided": true,
      "pbrMetallicRoughness": {
        "roughnessFactor": 0.20384615659713745,
        "metallicFactor": 0.15000000596046448,
        "baseColorTexture": {
          "index": 0
        }
      },
      "extensions": {
        "KHR_materials_specular": {
          "specularFactor": 0
        }
      }
    },
    {
      "name": "5",
      "doubleSided": true,
      "pbrMetallicRoughness": {
        "roughnessFactor": 0.3153846263885498,
        "metallicFactor": 0.1230769231915474,
        "baseColorTexture": {
          "index": 1
        }
      },
      "extensions": {
        "KHR_materials_specular": {
          "specularFactor": 0
        }
      }
    },
    {
      "name": "2",
      "doubleSided": true,
      "pbrMetallicRoughness": {
        "roughnessFactor": 0.3192307651042938,
        "metallicFactor": 0.15000000596046448,
        "baseColorTexture": {
          "index": 2
        }
      },
      "extensions": {
        "KHR_materials_specular": {
          "specularFactor": 0
        }
      }
    },
    {
      "name": "4",
      "doubleSided": true,
      "pbrMetallicRoughness": {
        "roughnessFactor": 0.307692289352417,
        "metallicFactor": 0.11923076957464218,
        "baseColorTexture": {
          "index": 3
        }
      },
      "extensions": {
        "KHR_materials_specular": {
          "specularFactor": 0
        }
      }
    },
    {
      "name": "6",
      "doubleSided": true,
      "pbrMetallicRoughness": {
        "roughnessFactor": 0.38461539149284363,
        "metallicFactor": 0.09615384787321091,
        "baseColorTexture": {
          "index": 4
        }
      },
      "extensions": {
        "KHR_materials_specular": {
          "specularFactor": 0
        }
      }
    },
    {
      "name": "1",
      "doubleSided": true,
      "pbrMetallicRoughness": {
        "roughnessFactor": 0.44999998807907104,
        "metallicFactor": 0.11538461595773697,
        "baseColorTexture": {
          "index": 5
        }
      },
      "extensions": {
        "KHR_materials_specular": {
          "specularFactor": 0
        }
      }
    },
    {
      "name": "Cover",
      "doubleSided": true,
      "pbrMetallicRoughness": {
        "roughnessFactor": 0.33076924085617065,
        "metallicFactor": 0.4076923131942749,
        "baseColorTexture": {
          "index": 6
        }
      },
      "extensions": {
        "KHR_materials_specular": {
          "specularFactor": 0
        }
      }
    },
    {
      "name": "Material.010",
      "doubleSided": true,
      "pbrMetallicRoughness": {
        "roughnessFactor": 0.2769230604171753,
        "metallicFactor": 0.07692307978868484,
        "baseColorTexture": {
          "index": 7
        }
      },
      "extensions": {
        "KHR_materials_specular": {
          "specularFactor": 0
        }
      }
    },
    {
      "name": "Material.016",
      "doubleSided": true,
      "pbrMetallicRoughness": {
        "baseColorFactor": [
          0.800000011920929,
          0.800000011920929,
          0.800000011920929,
          1
        ],
        "roughnessFactor": 0.5,
        "metallicFactor": 0
      }
    },
    {
      "name": "Material.012",
      "doubleSided": true,
      "pbrMetallicRoughness": {
        "roughnessFactor": 0.36153846979141235,
        "metallicFactor": 0.05000000074505806,
        "baseColorTexture": {
          "index": 8
        }
      },
      "extensions": {
        "KHR_materials_specular": {
          "specularFactor": 0
        }
      }
    },
    {
      "name": "Material.011",
      "doubleSided": true,
      "pbrMetallicRoughness": {
        "roughnessFactor": 0.303846150636673,
        "metallicFactor": 0.11923076957464218,
        "baseColorTexture": {
          "index": 9
        }
      },
      "extensions": {
        "KHR_materials_specular": {
          "specularFactor": 0
        }
      }
    },
    {
      "name": "Material.003",
      "doubleSided": true,
      "pbrMetallicRoughness": {
        "roughnessFactor": 0.38461539149284363,
        "metallicFactor": 0.057692307978868484,
        "baseColorTexture": {
          "index": 10
        }
      },
      "extensions": {
        "KHR_materials_specular": {
          "specularFactor": 0
        }
      }
    },
    {
      "name": "Material.014",
      "doubleSided": true,
      "pbrMetallicRoughness": {
        "roughnessFactor": 0.21153846383094788,
        "metallicFactor": 0.08846154063940048,
        "baseColorTexture": {
          "index": 11
        }
      },
      "extensions": {
        "KHR_materials_specular": {
          "specularFactor": 0
        }
      }
    },
    {
      "name": "Material.013",
      "doubleSided": true,
      "pbrMetallicRoughness": {
        "roughnessFactor": 0.22307690978050232,
        "metallicFactor": 0.10384615510702133,
        "baseColorTexture": {
          "index": 12
        }
      },
      "extensions": {
        "KHR_materials_specular": {
          "specularFactor": 0
        }
      }
    },
    {
      "name": "Material.015",
      "alphaMode": "BLEND",
      "doubleSided": true,
      "pbrMetallicRoughness": {
        "roughnessFactor": 0.5,
        "metallicFactor": 0,
        "baseColorTexture": {
          "index": 13
        }
      }
    }
  ],
  "meshes": [
    {
      "name": "Plane.039",
      "primitives": [
        {
          "attributes": {
            "POSITION": 0,
            "NORMAL": 1,
            "JOINTS_0": 2,
            "WEIGHTS_0": 3
          },
          "mode": 4,
          "material": 0,
          "indices": 4
        },
        {
          "attributes": {
            "POSITION": 34,
            "NORMAL": 35,
            "TEXCOORD_0": 36,
            "JOINTS_0": 37,
            "WEIGHTS_0": 38
          },
          "mode": 4,
          "material": 1,
          "indices": 5
        }
      ]
    },
    {
      "name": "Plane.042",
      "primitives": [
        {
          "attributes": {
            "POSITION": 40,
            "NORMAL": 41,
            "JOINTS_0": 42,
            "WEIGHTS_0": 43
          },
          "mode": 4,
          "material": 0,
          "indices": 6
        },
        {
          "attributes": {
            "POSITION": 44,
            "NORMAL": 45,
            "TEXCOORD_0": 46,
            "JOINTS_0": 47,
            "WEIGHTS_0": 48
          },
          "mode": 4,
          "material": 2,
          "indices": 7
        }
      ]
    },
    {
      "name": "Plane.040",
      "primitives": [
        {
          "attributes": {
            "POSITION": 49,
            "NORMAL": 50,
            "JOINTS_0": 51,
            "WEIGHTS_0": 52
          },
          "mode": 4,
          "material": 0,
          "indices": 8
        },
        {
          "attributes": {
            "POSITION": 53,
            "NORMAL": 54,
            "TEXCOORD_0": 55,
            "JOINTS_0": 56,
            "WEIGHTS_0": 57
          },
          "mode": 4,
          "material": 3,
          "indices": 9
        }
      ]
    },
    {
      "name": "Plane.041",
      "primitives": [
        {
          "attributes": {
            "POSITION": 58,
            "NORMAL": 59,
            "JOINTS_0": 60,
            "WEIGHTS_0": 61
          },
          "mode": 4,
          "material": 0,
          "indices": 10
        },
        {
          "attributes": {
            "POSITION": 62,
            "NORMAL": 63,
            "TEXCOORD_0": 64,
            "JOINTS_0": 65,
            "WEIGHTS_0": 66
          },
          "mode": 4,
          "material": 4,
          "indices": 11
        }
      ]
    },
    {
      "name": "Plane.043",
      "primitives": [
        {
          "attributes": {
            "POSITION": 67,
            "NORMAL": 68,
            "JOINTS_0": 69,
            "WEIGHTS_0": 70
          },
          "mode": 4,
          "material": 0,
          "indices": 12
        },
        {
          "attributes": {
            "POSITION": 71,
            "NORMAL": 72,
            "TEXCOORD_0": 73,
            "JOINTS_0": 74,
            "WEIGHTS_0": 75
          },
          "mode": 4,
          "material": 5,
          "indices": 13
        }
      ]
    },
    {
      "name": "Plane.017",
      "primitives": [
        {
          "attributes": {
            "POSITION": 76,
            "NORMAL": 77,
            "TEXCOORD_0": 78,
            "JOINTS_0": 79,
            "WEIGHTS_0": 80
          },
          "mode": 4,
          "material": 6,
          "indices": 14
        },
        {
          "attributes": {
            "POSITION": 81,
            "NORMAL": 82,
            "JOINTS_0": 83,
            "WEIGHTS_0": 84
          },
          "mode": 4,
          "material": 0,
          "indices": 15
        },
        {
          "attributes": {
            "POSITION": 85,
            "NORMAL": 86,
            "TEXCOORD_0": 87,
            "JOINTS_0": 88,
            "WEIGHTS_0": 89
          },
          "mode": 4,
          "material": 7,
          "indices": 16
        }
      ]
    },
    {
      "name": "Final Assembly - AA Battery-1",
      "primitives": [
        {
          "attributes": {
            "POSITION": 90,
            "NORMAL": 91
          },
          "mode": 4,
          "indices": 17
        }
      ]
    },
    {
      "name": "Final Assembly - AA Battery-2",
      "primitives": [
        {
          "attributes": {
            "POSITION": 92,
            "NORMAL": 93
          },
          "mode": 4,
          "indices": 17
        }
      ]
    },
    {
      "name": "Final Assembly - AA Battery-3",
      "primitives": [
        {
          "attributes": {
            "POSITION": 94,
            "NORMAL": 95
          },
          "mode": 4,
          "indices": 17
        }
      ]
    },
    {
      "name": "Final Assembly - Button 16mm...-1",
      "primitives": [
        {
          "attributes": {
            "POSITION": 96,
            "NORMAL": 97,
            "TEXCOORD_0": 98
          },
          "mode": 4,
          "material": 8,
          "indices": 18
        },
        {
          "attributes": {
            "POSITION": 99,
            "NORMAL": 100
          },
          "mode": 4,
          "material": 9,
          "indices": 19
        }
      ]
    },
    {
      "name": "Final Assembly - Button 16mm...-2",
      "primitives": [
        {
          "attributes": {
            "POSITION": 101,
            "NORMAL": 102,
            "TEXCOORD_0": 103
          },
          "mode": 4,
          "material": 10,
          "indices": 18
        },
        {
          "attributes": {
            "POSITION": 104,
            "NORMAL": 105
          },
          "mode": 4,
          "material": 9,
          "indices": 20
        }
      ]
    },
    {
      "name": "Final Assembly - Button 16mm...-3",
      "primitives": [
        {
          "attributes": {
            "POSITION": 106,
            "NORMAL": 107,
            "TEXCOORD_0": 108
          },
          "mode": 4,
          "material": 11,
          "indices": 18
        },
        {
          "attributes": {
            "POSITION": 109,
            "NORMAL": 110
          },
          "mode": 4,
          "material": 9,
          "indices": 21
        }
      ]
    },
    {
      "name": "Final Assembly - Button 16mm...-4",
      "primitives": [
        {
          "attributes": {
            "POSITION": 111,
            "NORMAL": 112,
            "TEXCOORD_0": 113
          },
          "mode": 4,
          "material": 12,
          "indices": 18
        },
        {
          "attributes": {
            "POSITION": 114,
            "NORMAL": 115
          },
          "mode": 4,
          "material": 9,
          "indices": 22
        }
      ]
    },
    {
      "name": "Final Assembly - Button 16mm...-5",
      "primitives": [
        {
          "attributes": {
            "POSITION": 116,
            "NORMAL": 117,
            "TEXCOORD_0": 118
          },
          "mode": 4,
          "material": 13,
          "indices": 18
        },
        {
          "attributes": {
            "POSITION": 119,
            "NORMAL": 120
          },
          "mode": 4,
          "material": 9,
          "indices": 23
        }
      ]
    },
    {
      "name": "Final Assembly - Button 20mm...-1",
      "primitives": [
        {
          "attributes": {
            "POSITION": 121,
            "NORMAL": 122,
            "TEXCOORD_0": 123
          },
          "mode": 4,
          "material": 14,
          "indices": 24
        },
        {
          "attributes": {
            "POSITION": 124,
            "NORMAL": 125
          },
          "mode": 4,
          "material": 9,
          "indices": 25
        }
      ]
    },
    {
      "name": "Final Assembly - Button mount-1",
      "primitives": [
        {
          "attributes": {
            "POSITION": 126,
            "NORMAL": 127
          },
          "mode": 4,
          "indices": 26
        }
      ]
    },
    {
      "name": "Final Assembly - Final lower enclosure without battery lid-1",
      "primitives": [
        {
          "attributes": {
            "POSITION": 128,
            "NORMAL": 129
          },
          "mode": 4,
          "material": 9,
          "indices": 27
        }
      ]
    },
    {
      "name": "Final Assembly - New battery lid-1",
      "primitives": [
        {
          "attributes": {
            "POSITION": 130,
            "NORMAL": 131
          },
          "mode": 4,
          "material": 9,
          "indices": 28
        }
      ]
    },
    {
      "name": "Final Assembly - PCB sample-1",
      "primitives": [
        {
          "attributes": {
            "POSITION": 132,
            "NORMAL": 133
          },
          "mode": 4,
          "indices": 29
        }
      ]
    },
    {
      "name": "Final Assembly - Speaker Body...-1",
      "primitives": [
        {
          "attributes": {
            "POSITION": 134,
            "NORMAL": 135
          },
          "mode": 4,
          "indices": 30
        }
      ]
    },
    {
      "name": "Final Assembly - Top enclosure.-1",
      "primitives": [
        {
          "attributes": {
            "POSITION": 136,
            "NORMAL": 137
          },
          "mode": 4,
          "material": 9,
          "indices": 31
        }
      ]
    },
    {
      "name": "Plane",
      "primitives": [
        {
          "attributes": {
            "POSITION": 138,
            "NORMAL": 139,
            "TEXCOORD_0": 140
          },
          "mode": 4,
          "material": 15,
          "indices": 32
        }
      ]
    },
    {
      "name": "Plane.015",
      "primitives": [
        {
          "attributes": {
            "POSITION": 141,
            "NORMAL": 142
          },
          "mode": 4,
          "material": 0,
          "indices": 33
        }
      ]
    }
  ],
  "nodes": [
    {
      "name": "1",
      "rotation": [
        -5.303431649394952e-8,
        -3.5076366811104265e-10,
        -0.7071067690849304,
        0.7071067690849304
      ]
    },
    {
      "name": "2",
      "translation": [
        0,
        -0.0004003439098596573,
        0
      ],
      "rotation": [
        -5.303431649394952e-8,
        -3.5076366811104265e-10,
        -0.7071067690849304,
        0.7071067690849304
      ]
    },
    {
      "name": "3",
      "translation": [
        0,
        -0.0012003500014543533,
        0
      ],
      "rotation": [
        -5.303431649394952e-8,
        -3.5076366811104265e-10,
        -0.7071067690849304,
        0.7071067690849304
      ]
    },
    {
      "name": "4",
      "translation": [
        0,
        -0.0020011700689792633,
        0
      ],
      "rotation": [
        -5.303431649394952e-8,
        -3.5076366811104265e-10,
        -0.7071067690849304,
        0.7071067690849304
      ]
    },
    {
      "name": "5",
      "translation": [
        0,
        -0.0028013447299599648,
        0
      ],
      "rotation": [
        -5.303431649394952e-8,
        -3.5076366811104265e-10,
        -0.7071067690849304,
        0.7071067690849304
      ]
    },
    {
      "name": "6",
      "translation": [
        0,
        -0.003600641153752804,
        0
      ],
      "rotation": [
        -5.303431649394952e-8,
        -3.5076366811104265e-10,
        -0.7071067690849304,
        0.7071067690849304
      ]
    },
    {
      "name": "lid",
      "translation": [
        0.1000000461935997,
        -0.005001550540328026,
        0.06500004231929779
      ],
      "rotation": [
        -0.5000000596046448,
        0.5,
        -0.4999999701976776,
        0.5
      ]
    },
    {
      "name": "spine",
      "translation": [
        -0.004502095282077789,
        -0.015442063100636005,
        -0.0019030121620744467
      ],
      "rotation": [
        -4.253966068290538e-8,
        1.1394734400482776e-7,
        0.0878535732626915,
        0.9961334466934204
      ]
    },
    {
      "name": "neutral_bone",
      "rotation": [
        -0.7071067690849304,
        0,
        0,
        0.7071067690849304
      ]
    },
    {
      "name": "Plane.002",
      "mesh": 0,
      "skin": 0
    },
    {
      "name": "Plane.003",
      "mesh": 1,
      "skin": 0
    },
    {
      "name": "Plane.004",
      "mesh": 2,
      "skin": 0
    },
    {
      "name": "Plane.005",
      "mesh": 3,
      "skin": 0
    },
    {
      "name": "Plane.006",
      "mesh": 4,
      "skin": 0
    },
    {
      "name": "Plane.008",
      "mesh": 5,
      "skin": 0
    },
    {
      "name": "Armature",
      "translation": [
        -0.12140511721372604,
        0.018317436799407005,
        0.0027168653905391693
      ],
      "children": [
        9,
        10,
        11,
        12,
        13,
        14,
        0,
        1,
        2,
        3,
        4,
        5,
        6,
        7,
        8
      ]
    },
    {
      "name": "Final Assembly - AA Battery-1",
      "translation": [
        0.1295715868473053,
        0.011586800217628479,
        0.04613788425922394
      ],
      "mesh": 6
    },
    {
      "name": "Final Assembly - AA Battery-2",
      "translation": [
        0.11358901858329773,
        0.011586770415306091,
        0.03658841550350189
      ],
      "mesh": 7
    },
    {
      "name": "Final Assembly - AA Battery-3",
      "translation": [
        0.09758833795785904,
        0.011586785316467285,
        0.04613788425922394
      ],
      "mesh": 8
    },
    {
      "name": "Final Assembly - Button 16mm...-1",
      "translation": [
        0.13055971264839172,
        0.019378364086151123,
        -0.02905523031949997
      ],
      "mesh": 9
    },
    {
      "name": "Final Assembly - Button 16mm...-2",
      "translation": [
        0.09661862254142761,
        0.019378364086151123,
        -0.057056352496147156
      ],
      "mesh": 10
    },
    {
      "name": "Final Assembly - Button 16mm...-3",
      "translation": [
        0.09661902487277985,
        0.019378364086151123,
        -0.029051925987005234
      ],
      "mesh": 11
    },
    {
      "name": "Final Assembly - Button 16mm...-4",
      "translation": [
        0.13055849075317383,
        0.019378364086151123,
        -0.05705343931913376
      ],
      "mesh": 12
    },
    {
      "name": "Final Assembly - Button 16mm...-5",
      "translation": [
        0.11358901113271713,
        0.019378364086151123,
        -0.043056488037109375
      ],
      "mesh": 13
    },
    {
      "name": "Final Assembly - Button 20mm...-1",
      "translation": [
        0.11358023434877396,
        0.019436798989772797,
        -0.004315891768783331
      ],
      "mesh": 14
    },
    {
      "name": "Final Assembly - Button mount-1",
      "translation": [
        0.11347737163305283,
        0.01245775818824768,
        -0.037284038960933685
      ],
      "mesh": 15
    },
    {
      "name": "Final Assembly - Final lower enclosure without battery lid-1",
      "translation": [
        0.1133890151977539,
        0.0079292431473732,
        -0.028829187154769897
      ],
      "mesh": 16
    },
    {
      "name": "Final Assembly - New battery lid-1",
      "translation": [
        0.11989928036928177,
        0.005369849503040314,
        0.05530526489019394
      ],
      "mesh": 17
    },
    {
      "name": "Final Assembly - PCB sample-1",
      "translation": [
        0.11386799812316895,
        0.010015539824962616,
        -0.04618948698043823
      ],
      "mesh": 18
    },
    {
      "name": "Final Assembly - Speaker Body...-1",
      "translation": [
        0.11358901113271713,
        0.014554500579833984,
        -0.0848320946097374
      ],
      "mesh": 19
    },
    {
      "name": "Final Assembly - Top enclosure.-1",
      "translation": [
        0.11402755975723267,
        0.015364818274974823,
        -0.01925102435052395
      ],
      "mesh": 20
    },
    {
      "name": "Plane",
      "translation": [
        0.11335770785808563,
        0.020844578742980957,
        0.04425198584794998
      ],
      "mesh": 21
    },
    {
      "name": "Plane.007",
      "translation": [
        -0.021405082195997238,
        0.008315891027450562,
        -0.002283121459186077
      ],
      "mesh": 22
    }
  ],
  "skins": [
    {
      "name": "Armature",
      "inverseBindMatrices": 39,
      "joints": [
        0,
        1,
        2,
        3,
        4,
        5,
        6,
        7,
        8
      ]
    }
  ],
  "animations": [
    {
      "name": "PageTurns",
      "samplers": [
        {
          "input": 143,
          "output": 144,
          "interpolation": "LINEAR"
        },
        {
          "input": 143,
          "output": 145,
          "interpolation": "LINEAR"
        },
        {
          "input": 146,
          "output": 147,
          "interpolation": "STEP"
        },
        {
          "input": 143,
          "output": 148,
          "interpolation": "LINEAR"
        },
        {
          "input": 143,
          "output": 149,
          "interpolation": "LINEAR"
        },
        {
          "input": 146,
          "output": 150,
          "interpolation": "STEP"
        },
        {
          "input": 143,
          "output": 151,
          "interpolation": "LINEAR"
        },
        {
          "input": 143,
          "output": 152,
          "interpolation": "LINEAR"
        },
        {
          "input": 146,
          "output": 150,
          "interpolation": "STEP"
        },
        {
          "input": 143,
          "output": 153,
          "interpolation": "LINEAR"
        },
        {
          "input": 143,
          "output": 154,
          "interpolation": "LINEAR"
        },
        {
          "input": 146,
          "output": 147,
          "interpolation": "STEP"
        },
        {
          "input": 143,
          "output": 155,
          "interpolation": "LINEAR"
        },
        {
          "input": 143,
          "output": 156,
          "interpolation": "LINEAR"
        },
        {
          "input": 146,
          "output": 147,
          "interpolation": "STEP"
        },
        {
          "input": 146,
          "output": 157,
          "interpolation": "STEP"
        },
        {
          "input": 143,
          "output": 158,
          "interpolation": "LINEAR"
        },
        {
          "input": 146,
          "output": 147,
          "interpolation": "STEP"
        },
        {
          "input": 146,
          "output": 159,
          "interpolation": "STEP"
        },
        {
          "input": 143,
          "output": 160,
          "interpolation": "LINEAR"
        },
        {
          "input": 146,
          "output": 147,
          "interpolation": "STEP"
        },
        {
          "input": 146,
          "output": 161,
          "interpolation": "STEP"
        },
        {
          "input": 146,
          "output": 162,
          "interpolation": "STEP"
        },
        {
          "input": 143,
          "output": 163,
          "interpolation": "LINEAR"
        }
      ],
      "channels": [
        {
          "sampler": 0,
          "target": {
            "node": 0,
            "path": "translation"
          }
        },
        {
          "sampler": 1,
          "target": {
            "node": 0,
            "path": "rotation"
          }
        },
        {
          "sampler": 2,
          "target": {
            "node": 0,
            "path": "scale"
          }
        },
        {
          "sampler": 3,
          "target": {
            "node": 1,
            "path": "translation"
          }
        },
        {
          "sampler": 4,
          "target": {
            "node": 1,
            "path": "rotation"
          }
        },
        {
          "sampler": 5,
          "target": {
            "node": 1,
            "path": "scale"
          }
        },
        {
          "sampler": 6,
          "target": {
            "node": 2,
            "path": "translation"
          }
        },
        {
          "sampler": 7,
          "target": {
            "node": 2,
            "path": "rotation"
          }
        },
        {
          "sampler": 8,
          "target": {
            "node": 2,
            "path": "scale"
          }
        },
        {
          "sampler": 9,
          "target": {
            "node": 3,
            "path": "translation"
          }
        },
        {
          "sampler": 10,
          "target": {
            "node": 3,
            "path": "rotation"
          }
        },
        {
          "sampler": 11,
          "target": {
            "node": 3,
            "path": "scale"
          }
        },
        {
          "sampler": 12,
          "target": {
            "node": 4,
            "path": "translation"
          }
        },
        {
          "sampler": 13,
          "target": {
            "node": 4,
            "path": "rotation"
          }
        },
        {
          "sampler": 14,
          "target": {
            "node": 4,
            "path": "scale"
          }
        },
        {
          "sampler": 15,
          "target": {
            "node": 5,
            "path": "translation"
          }
        },
        {
          "sampler": 16,
          "target": {
            "node": 5,
            "path": "rotation"
          }
        },
        {
          "sampler": 17,
          "target": {
            "node": 5,
            "path": "scale"
          }
        },
        {
          "sampler": 18,
          "target": {
            "node": 6,
            "path": "translation"
          }
        },
        {
          "sampler": 19,
          "target": {
            "node": 6,
            "path": "rotation"
          }
        },
        {
          "sampler": 20,
          "target": {
            "node": 6,
            "path": "scale"
          }
        },
        {
          "sampler": 21,
          "target": {
            "node": 7,
            "path": "translation"
          }
        },
        {
          "sampler": 22,
          "target": {
            "node": 7,
            "path": "rotation"
          }
        },
        {
          "sampler": 23,
          "target": {
            "node": 7,
            "path": "scale"
          }
        }
      ]
    }
  ],
  "scenes": [
    {
      "name": "Scene",
      "nodes": [
        15,
        16,
        17,
        18,
        19,
        20,
        21,
        22,
        23,
        24,
        25,
        26,
        27,
        28,
        29,
        30,
        31,
        32
      ]
    }
  ],
  "scene": 0,
  "extensionsUsed": [
    "KHR_materials_specular"
  ]
}